<mxfile host="app.diagrams.net" modified="2021-01-11T12:03:58.211Z" agent="5.0 (X11; Linux x86_64) AppleWebKit/537.36 (KHTML, like Gecko) Chrome/81.0.4044.122 Safari/537.36" etag="OHXzfTCFUjS3MpZoMhME" version="14.1.9" type="github">
  <diagram id="9qKWAtdhl-_wao6a2sxs" name="Page-1">
    <mxGraphModel dx="868" dy="462" grid="1" gridSize="10" guides="1" tooltips="1" connect="1" arrows="1" fold="1" page="1" pageScale="1" pageWidth="827" pageHeight="1169" math="0" shadow="0">
      <root>
        <mxCell id="0" />
        <mxCell id="1" parent="0" />
        <mxCell id="nBqAGyp2BiEuoEke4evz-1" value="Lambda" style="rounded=0;whiteSpace=wrap;html=1;" vertex="1" parent="1">
          <mxGeometry x="310" y="90" width="170" height="50" as="geometry" />
        </mxCell>
        <mxCell id="nBqAGyp2BiEuoEke4evz-2" value="" style="endArrow=classic;html=1;exitX=1;exitY=0.5;exitDx=0;exitDy=0;entryX=0;entryY=0.5;entryDx=0;entryDy=0;" edge="1" parent="1" source="nBqAGyp2BiEuoEke4evz-3" target="nBqAGyp2BiEuoEke4evz-1">
          <mxGeometry width="50" height="50" relative="1" as="geometry">
            <mxPoint x="390" y="270" as="sourcePoint" />
            <mxPoint x="380" y="125" as="targetPoint" />
          </mxGeometry>
        </mxCell>
        <mxCell id="nBqAGyp2BiEuoEke4evz-3" value="SQS" style="ellipse;whiteSpace=wrap;html=1;aspect=fixed;" vertex="1" parent="1">
          <mxGeometry x="110" y="75" width="80" height="80" as="geometry" />
        </mxCell>
        <mxCell id="nBqAGyp2BiEuoEke4evz-5" value="&lt;div style=&quot;text-align: justify&quot;&gt;&lt;span&gt;SQS is generated on file creation events in deerwalk-iqr bucket&lt;/span&gt;&lt;/div&gt;" style="text;html=1;strokeColor=none;fillColor=none;align=center;verticalAlign=middle;whiteSpace=wrap;rounded=0;" vertex="1" parent="1">
          <mxGeometry x="50" y="155" width="120" height="65" as="geometry" />
        </mxCell>
        <mxCell id="nBqAGyp2BiEuoEke4evz-7" value="Cluster 1" style="rounded=1;whiteSpace=wrap;html=1;" vertex="1" parent="1">
          <mxGeometry x="315" y="420" width="170" height="60" as="geometry" />
        </mxCell>
        <mxCell id="nBqAGyp2BiEuoEke4evz-8" value="" style="rhombus;whiteSpace=wrap;html=1;" vertex="1" parent="1">
          <mxGeometry x="350" y="240" width="100" height="90" as="geometry" />
        </mxCell>
        <mxCell id="nBqAGyp2BiEuoEke4evz-9" value="" style="endArrow=classic;html=1;" edge="1" parent="1">
          <mxGeometry width="50" height="50" relative="1" as="geometry">
            <mxPoint x="395" y="140" as="sourcePoint" />
            <mxPoint x="400" y="240" as="targetPoint" />
          </mxGeometry>
        </mxCell>
        <mxCell id="nBqAGyp2BiEuoEke4evz-10" value="" style="endArrow=classic;html=1;exitX=0.5;exitY=1;exitDx=0;exitDy=0;entryX=0.5;entryY=0;entryDx=0;entryDy=0;" edge="1" parent="1" source="nBqAGyp2BiEuoEke4evz-8" target="nBqAGyp2BiEuoEke4evz-7">
          <mxGeometry width="50" height="50" relative="1" as="geometry">
            <mxPoint x="390" y="420" as="sourcePoint" />
            <mxPoint x="440" y="370" as="targetPoint" />
          </mxGeometry>
        </mxCell>
        <mxCell id="nBqAGyp2BiEuoEke4evz-11" value="No" style="text;html=1;strokeColor=none;fillColor=none;align=center;verticalAlign=middle;whiteSpace=wrap;rounded=0;" vertex="1" parent="1">
          <mxGeometry x="350" y="370" width="40" height="20" as="geometry" />
        </mxCell>
        <mxCell id="nBqAGyp2BiEuoEke4evz-12" value="Is pending jobs &amp;gt; 200?" style="text;html=1;strokeColor=none;fillColor=none;align=center;verticalAlign=middle;whiteSpace=wrap;rounded=0;" vertex="1" parent="1">
          <mxGeometry x="380" y="275" width="40" height="20" as="geometry" />
        </mxCell>
        <mxCell id="nBqAGyp2BiEuoEke4evz-13" value="" style="endArrow=classic;html=1;exitX=1;exitY=0.5;exitDx=0;exitDy=0;" edge="1" parent="1" source="nBqAGyp2BiEuoEke4evz-8">
          <mxGeometry width="50" height="50" relative="1" as="geometry">
            <mxPoint x="390" y="370" as="sourcePoint" />
            <mxPoint x="570" y="285" as="targetPoint" />
          </mxGeometry>
        </mxCell>
        <mxCell id="nBqAGyp2BiEuoEke4evz-14" value="yes" style="text;html=1;align=center;verticalAlign=middle;resizable=0;points=[];autosize=1;" vertex="1" parent="1">
          <mxGeometry x="475" y="260" width="30" height="20" as="geometry" />
        </mxCell>
        <mxCell id="nBqAGyp2BiEuoEke4evz-15" value="Cluster 2" style="rounded=1;whiteSpace=wrap;html=1;" vertex="1" parent="1">
          <mxGeometry x="570" y="420" width="140" height="60" as="geometry" />
        </mxCell>
        <mxCell id="nBqAGyp2BiEuoEke4evz-19" value="Lambda polls sqs on periodically&amp;nbsp;" style="text;html=1;strokeColor=none;fillColor=none;align=center;verticalAlign=middle;whiteSpace=wrap;rounded=0;" vertex="1" parent="1">
          <mxGeometry x="340" y="25" width="130" height="50" as="geometry" />
        </mxCell>
        <mxCell id="nBqAGyp2BiEuoEke4evz-20" value="Submits to cluster" style="text;html=1;align=center;verticalAlign=middle;resizable=0;points=[];autosize=1;" vertex="1" parent="1">
          <mxGeometry x="414" y="180" width="110" height="20" as="geometry" />
        </mxCell>
        <mxCell id="nBqAGyp2BiEuoEke4evz-22" value="Processing Services" style="rounded=1;whiteSpace=wrap;html=1;" vertex="1" parent="1">
          <mxGeometry x="590" y="85" width="120" height="60" as="geometry" />
        </mxCell>
        <mxCell id="nBqAGyp2BiEuoEke4evz-24" value="" style="endArrow=none;html=1;entryX=0;entryY=0.5;entryDx=0;entryDy=0;exitX=1;exitY=0.5;exitDx=0;exitDy=0;" edge="1" parent="1" source="nBqAGyp2BiEuoEke4evz-1" target="nBqAGyp2BiEuoEke4evz-22">
          <mxGeometry width="50" height="50" relative="1" as="geometry">
            <mxPoint x="390" y="250" as="sourcePoint" />
            <mxPoint x="580" y="130" as="targetPoint" />
          </mxGeometry>
        </mxCell>
        <mxCell id="nBqAGyp2BiEuoEke4evz-25" value="Request Api for pending jobs&lt;br&gt;" style="text;html=1;align=center;verticalAlign=middle;resizable=0;points=[];autosize=1;" vertex="1" parent="1">
          <mxGeometry x="500" y="60" width="170" height="20" as="geometry" />
        </mxCell>
        <mxCell id="nBqAGyp2BiEuoEke4evz-33" value="" style="endArrow=classic;html=1;exitX=0.5;exitY=1;exitDx=0;exitDy=0;entryX=0.393;entryY=-0.033;entryDx=0;entryDy=0;entryPerimeter=0;" edge="1" parent="1" source="nBqAGyp2BiEuoEke4evz-34" target="nBqAGyp2BiEuoEke4evz-15">
          <mxGeometry width="50" height="50" relative="1" as="geometry">
            <mxPoint x="625" y="332.5" as="sourcePoint" />
            <mxPoint x="440" y="250" as="targetPoint" />
          </mxGeometry>
        </mxCell>
        <mxCell id="nBqAGyp2BiEuoEke4evz-34" value="" style="rhombus;whiteSpace=wrap;html=1;" vertex="1" parent="1">
          <mxGeometry x="570" y="240" width="100" height="90" as="geometry" />
        </mxCell>
        <mxCell id="nBqAGyp2BiEuoEke4evz-35" value="Is pending jobs &amp;gt; 200?" style="text;html=1;strokeColor=none;fillColor=none;align=center;verticalAlign=middle;whiteSpace=wrap;rounded=0;" vertex="1" parent="1">
          <mxGeometry x="600" y="275" width="40" height="20" as="geometry" />
        </mxCell>
        <mxCell id="nBqAGyp2BiEuoEke4evz-37" value="No" style="text;html=1;strokeColor=none;fillColor=none;align=center;verticalAlign=middle;whiteSpace=wrap;rounded=0;" vertex="1" parent="1">
          <mxGeometry x="630" y="360" width="40" height="20" as="geometry" />
        </mxCell>
        <mxCell id="nBqAGyp2BiEuoEke4evz-38" value="" style="endArrow=classic;html=1;exitX=1;exitY=0.5;exitDx=0;exitDy=0;entryX=0.5;entryY=0;entryDx=0;entryDy=0;" edge="1" parent="1" source="nBqAGyp2BiEuoEke4evz-34" target="nBqAGyp2BiEuoEke4evz-40">
          <mxGeometry width="50" height="50" relative="1" as="geometry">
            <mxPoint x="390" y="350" as="sourcePoint" />
            <mxPoint x="770" y="285" as="targetPoint" />
            <Array as="points">
              <mxPoint x="830" y="285" />
            </Array>
          </mxGeometry>
        </mxCell>
        <mxCell id="nBqAGyp2BiEuoEke4evz-40" value="Cluster 3" style="rounded=1;whiteSpace=wrap;html=1;" vertex="1" parent="1">
          <mxGeometry x="770" y="420" width="120" height="60" as="geometry" />
        </mxCell>
        <mxCell id="nBqAGyp2BiEuoEke4evz-41" value="yes" style="text;html=1;align=center;verticalAlign=middle;resizable=0;points=[];autosize=1;" vertex="1" parent="1">
          <mxGeometry x="695" y="260" width="30" height="20" as="geometry" />
        </mxCell>
      </root>
    </mxGraphModel>
  </diagram>
</mxfile>
